<svg width="237" height="112" viewBox="0 0 237 112" fill="none" xmlns="http://www.w3.org/2000/svg">
<path d="M18 64.58H14.8V71H13.36V57H14.8V63.28H18L22.74 57H24.34L19.14 63.8L24.64 71H22.94L18 64.58ZM31.0975 71.1C30.0842 71.1 29.1708 70.8733 28.3575 70.42C27.5442 69.9533 26.9042 69.3133 26.4375 68.5C25.9708 67.6867 25.7375 66.7667 25.7375 65.74C25.7375 64.7133 25.9708 63.7933 26.4375 62.98C26.9042 62.1667 27.5442 61.5333 28.3575 61.08C29.1708 60.6267 30.0842 60.4 31.0975 60.4C32.1108 60.4 33.0242 60.6267 33.8375 61.08C34.6508 61.5333 35.2842 62.1667 35.7375 62.98C36.2042 63.7933 36.4375 64.7133 36.4375 65.74C36.4375 66.7667 36.2042 67.6867 35.7375 68.5C35.2842 69.3133 34.6508 69.9533 33.8375 70.42C33.0242 70.8733 32.1108 71.1 31.0975 71.1ZM31.0975 69.84C31.8442 69.84 32.5108 69.6733 33.0975 69.34C33.6975 68.9933 34.1642 68.5067 34.4975 67.88C34.8308 67.2533 34.9975 66.54 34.9975 65.74C34.9975 64.94 34.8308 64.2267 34.4975 63.6C34.1642 62.9733 33.6975 62.4933 33.0975 62.16C32.5108 61.8133 31.8442 61.64 31.0975 61.64C30.3508 61.64 29.6775 61.8133 29.0775 62.16C28.4908 62.4933 28.0242 62.9733 27.6775 63.6C27.3442 64.2267 27.1775 64.94 27.1775 65.74C27.1775 66.54 27.3442 67.2533 27.6775 67.88C28.0242 68.5067 28.4908 68.9933 29.0775 69.34C29.6775 69.6733 30.3508 69.84 31.0975 69.84ZM51.5323 60.48V71H50.2323V62.68L45.9723 69.72H45.3323L41.0723 62.66V71H39.7723V60.48H41.2123L45.6723 68.06L50.2123 60.48H51.5323ZM65.3131 60.48V71H63.8931V61.74H57.2931V71H55.8731V60.48H65.3131ZM73.2697 60.4C74.643 60.4 75.6964 60.7467 76.4297 61.44C77.163 62.12 77.5297 63.1333 77.5297 64.48V71H76.1697V69.36C75.8497 69.9067 75.3764 70.3333 74.7497 70.64C74.1364 70.9467 73.403 71.1 72.5497 71.1C71.3764 71.1 70.443 70.82 69.7497 70.26C69.0564 69.7 68.7097 68.96 68.7097 68.04C68.7097 67.1467 69.0297 66.4267 69.6697 65.88C70.323 65.3333 71.3564 65.06 72.7697 65.06H76.1097V64.42C76.1097 63.5133 75.8564 62.8267 75.3497 62.36C74.843 61.88 74.103 61.64 73.1297 61.64C72.463 61.64 71.823 61.7533 71.2097 61.98C70.5964 62.1933 70.0697 62.4933 69.6297 62.88L68.9897 61.82C69.523 61.3667 70.163 61.02 70.9097 60.78C71.6564 60.5267 72.443 60.4 73.2697 60.4ZM72.7697 69.98C73.5697 69.98 74.2564 69.8 74.8297 69.44C75.403 69.0667 75.8297 68.5333 76.1097 67.84V66.12H72.8097C71.0097 66.12 70.1097 66.7467 70.1097 68C70.1097 68.6133 70.343 69.1 70.8097 69.46C71.2764 69.8067 71.9297 69.98 72.7697 69.98ZM81.6098 60.48H83.0298V65.14H89.6498V60.48H91.0698V71H89.6498V66.36H83.0298V71H81.6098V60.48ZM95.4059 60.48H96.8259V68.84L103.846 60.48H105.106V71H103.686V62.64L96.6859 71H95.4059V60.48ZM117.555 60.48V71H116.255V67.52H112.955H112.555L110.115 71H108.575L111.195 67.32C110.382 67.0933 109.755 66.7067 109.315 66.16C108.875 65.6133 108.655 64.92 108.655 64.08C108.655 62.9067 109.055 62.0133 109.855 61.4C110.655 60.7867 111.749 60.48 113.135 60.48H117.555ZM110.095 64.12C110.095 65.68 111.089 66.46 113.075 66.46H116.255V61.74H113.175C111.122 61.74 110.095 62.5333 110.095 64.12ZM126.68 65.52L129.44 61.52H133.44L130.78 65.52L133.44 69.52H129.44L126.68 65.52ZM131.98 65.52L134.74 61.52H138.74L136.08 65.52L138.74 69.52H134.74L131.98 65.52ZM154.112 57V71H149.472V60.66H145.212V71H140.572V57H154.112ZM164.008 59.86C164.968 59.86 165.848 60.0933 166.648 60.56C167.461 61.0133 168.101 61.6733 168.568 62.54C169.048 63.4067 169.288 64.4067 169.288 65.54C169.288 66.6733 169.048 67.6733 168.568 68.54C168.101 69.3933 167.461 70.0533 166.648 70.52C165.848 70.9733 164.968 71.2 164.008 71.2C162.794 71.2 161.868 70.8867 161.228 70.26V74.88H156.708V60.06H161.008V60.96C161.661 60.2267 162.661 59.86 164.008 59.86ZM162.928 67.68C163.448 67.68 163.874 67.4933 164.208 67.12C164.541 66.7467 164.708 66.22 164.708 65.54C164.708 64.86 164.541 64.3333 164.208 63.96C163.874 63.5733 163.448 63.38 162.928 63.38C162.408 63.38 161.981 63.5733 161.648 63.96C161.314 64.3333 161.148 64.86 161.148 65.54C161.148 66.22 161.314 66.7467 161.648 67.12C161.981 67.4933 162.408 67.68 162.928 67.68ZM176.691 71.2C175.477 71.2 174.384 70.96 173.411 70.48C172.451 69.9867 171.697 69.3133 171.151 68.46C170.604 67.5933 170.331 66.6133 170.331 65.52C170.331 64.4267 170.604 63.4533 171.151 62.6C171.697 61.7333 172.451 61.06 173.411 60.58C174.384 60.1 175.477 59.86 176.691 59.86C177.917 59.86 179.011 60.1 179.971 60.58C180.944 61.06 181.697 61.7333 182.231 62.6C182.777 63.4533 183.051 64.4267 183.051 65.52C183.051 66.6133 182.777 67.5933 182.231 68.46C181.697 69.3133 180.944 69.9867 179.971 70.48C179.011 70.96 177.917 71.2 176.691 71.2ZM176.691 67.68C177.211 67.68 177.637 67.4933 177.971 67.12C178.304 66.7333 178.471 66.2 178.471 65.52C178.471 64.84 178.304 64.3133 177.971 63.94C177.637 63.5667 177.211 63.38 176.691 63.38C176.171 63.38 175.744 63.5667 175.411 63.94C175.077 64.3133 174.911 64.84 174.911 65.52C174.911 66.2 175.077 66.7333 175.411 67.12C175.744 67.4933 176.171 67.68 176.691 67.68ZM196.249 65.52C196.249 65.5867 196.229 65.94 196.189 66.58H188.589C188.749 66.9933 189.016 67.3133 189.389 67.54C189.762 67.7533 190.229 67.86 190.789 67.86C191.269 67.86 191.669 67.8 191.989 67.68C192.322 67.56 192.682 67.3533 193.069 67.06L195.429 69.44C194.362 70.6133 192.769 71.2 190.649 71.2C189.329 71.2 188.169 70.96 187.169 70.48C186.169 69.9867 185.396 69.3067 184.849 68.44C184.302 67.5733 184.029 66.6 184.029 65.52C184.029 64.4267 184.296 63.4533 184.829 62.6C185.376 61.7333 186.116 61.06 187.049 60.58C187.996 60.1 189.056 59.86 190.229 59.86C191.336 59.86 192.342 60.08 193.249 60.52C194.169 60.96 194.896 61.6067 195.429 62.46C195.976 63.3133 196.249 64.3333 196.249 65.52ZM190.269 62.94C189.802 62.94 189.416 63.0667 189.109 63.32C188.802 63.5733 188.602 63.9333 188.509 64.4H192.029C191.936 63.9467 191.736 63.5933 191.429 63.34C191.122 63.0733 190.736 62.94 190.269 62.94ZM203.554 67.36H202.694V71H198.174V60.06H202.694V63.9H203.674L206.074 60.06H210.834L207.314 65.3L211.054 71H205.734L203.554 67.36ZM222.721 63.58H219.381V71H214.881V63.58H211.541V60.06H222.721V63.58ZM223.561 69.52L226.221 65.52L223.561 61.52H227.561L230.321 65.52L227.561 69.52H223.561ZM228.861 69.52L231.521 65.52L228.861 61.52H232.861L235.621 65.52L232.861 69.52H228.861Z" fill="white"/>
<path d="M17.363 40.7V47H16.706V41.276H12.719V47H12.062V40.7H17.363ZM22.0448 42.23C22.4888 42.23 22.8908 42.332 23.2508 42.536C23.6108 42.734 23.8928 43.016 24.0968 43.382C24.3008 43.748 24.4028 44.165 24.4028 44.633C24.4028 45.107 24.3008 45.527 24.0968 45.893C23.8928 46.259 23.6108 46.544 23.2508 46.748C22.8968 46.946 22.4948 47.045 22.0448 47.045C21.6608 47.045 21.3128 46.967 21.0008 46.811C20.6948 46.649 20.4428 46.415 20.2448 46.109V48.746H19.6058V42.266H20.2178V43.202C20.4098 42.89 20.6618 42.65 20.9738 42.482C21.2918 42.314 21.6488 42.23 22.0448 42.23ZM21.9998 46.478C22.3298 46.478 22.6298 46.403 22.8998 46.253C23.1698 46.097 23.3798 45.878 23.5298 45.596C23.6858 45.314 23.7638 44.993 23.7638 44.633C23.7638 44.273 23.6858 43.955 23.5298 43.679C23.3798 43.397 23.1698 43.178 22.8998 43.022C22.6298 42.866 22.3298 42.788 21.9998 42.788C21.6638 42.788 21.3608 42.866 21.0908 43.022C20.8268 43.178 20.6168 43.397 20.4608 43.679C20.3108 43.955 20.2358 44.273 20.2358 44.633C20.2358 44.993 20.3108 45.314 20.4608 45.596C20.6168 45.878 20.8268 46.097 21.0908 46.253C21.3608 46.403 21.6638 46.478 21.9998 46.478ZM27.9987 47.045C27.5427 47.045 27.1317 46.943 26.7657 46.739C26.3997 46.529 26.1117 46.241 25.9017 45.875C25.6917 45.509 25.5867 45.095 25.5867 44.633C25.5867 44.171 25.6917 43.757 25.9017 43.391C26.1117 43.025 26.3997 42.74 26.7657 42.536C27.1317 42.332 27.5427 42.23 27.9987 42.23C28.4547 42.23 28.8657 42.332 29.2317 42.536C29.5977 42.74 29.8827 43.025 30.0867 43.391C30.2967 43.757 30.4017 44.171 30.4017 44.633C30.4017 45.095 30.2967 45.509 30.0867 45.875C29.8827 46.241 29.5977 46.529 29.2317 46.739C28.8657 46.943 28.4547 47.045 27.9987 47.045ZM27.9987 46.478C28.3347 46.478 28.6347 46.403 28.8987 46.253C29.1687 46.097 29.3787 45.878 29.5287 45.596C29.6787 45.314 29.7537 44.993 29.7537 44.633C29.7537 44.273 29.6787 43.952 29.5287 43.67C29.3787 43.388 29.1687 43.172 28.8987 43.022C28.6347 42.866 28.3347 42.788 27.9987 42.788C27.6627 42.788 27.3597 42.866 27.0897 43.022C26.8257 43.172 26.6157 43.388 26.4597 43.67C26.3097 43.952 26.2347 44.273 26.2347 44.633C26.2347 44.993 26.3097 45.314 26.4597 45.596C26.6157 45.878 26.8257 46.097 27.0897 46.253C27.3597 46.403 27.6627 46.478 27.9987 46.478ZM36.1774 44.831H32.2174C32.2534 45.323 32.4424 45.722 32.7844 46.028C33.1264 46.328 33.5584 46.478 34.0804 46.478C34.3744 46.478 34.6444 46.427 34.8904 46.325C35.1364 46.217 35.3494 46.061 35.5294 45.857L35.8894 46.271C35.6794 46.523 35.4154 46.715 35.0974 46.847C34.7854 46.979 34.4404 47.045 34.0624 47.045C33.5764 47.045 33.1444 46.943 32.7664 46.739C32.3944 46.529 32.1034 46.241 31.8934 45.875C31.6834 45.509 31.5784 45.095 31.5784 44.633C31.5784 44.171 31.6774 43.757 31.8754 43.391C32.0794 43.025 32.3554 42.74 32.7034 42.536C33.0574 42.332 33.4534 42.23 33.8914 42.23C34.3294 42.23 34.7224 42.332 35.0704 42.536C35.4184 42.74 35.6914 43.025 35.8894 43.391C36.0874 43.751 36.1864 44.165 36.1864 44.633L36.1774 44.831ZM33.8914 42.779C33.4354 42.779 33.0514 42.926 32.7394 43.22C32.4334 43.508 32.2594 43.886 32.2174 44.354H35.5744C35.5324 43.886 35.3554 43.508 35.0434 43.22C34.7374 42.926 34.3534 42.779 33.8914 42.779ZM39.5898 44.894H38.5098V47H37.8708V42.266H38.5098V44.345H39.5988L41.2638 42.266H41.9568L40.0938 44.561L42.0918 47H41.3358L39.5898 44.894ZM46.6036 42.833H44.8126V47H44.1736V42.833H42.3826V42.266H46.6036V42.833ZM47.7976 42.266H48.4366V46.028L51.5956 42.266H52.1626V47H51.5236V43.238L48.3736 47H47.7976V42.266ZM56.7028 42.23C57.1468 42.23 57.5488 42.332 57.9088 42.536C58.2688 42.734 58.5508 43.016 58.7548 43.382C58.9588 43.748 59.0608 44.165 59.0608 44.633C59.0608 45.107 58.9588 45.527 58.7548 45.893C58.5508 46.259 58.2688 46.544 57.9088 46.748C57.5548 46.946 57.1528 47.045 56.7028 47.045C56.3188 47.045 55.9708 46.967 55.6588 46.811C55.3528 46.649 55.1008 46.415 54.9028 46.109V48.746H54.2638V42.266H54.8758V43.202C55.0678 42.89 55.3198 42.65 55.6318 42.482C55.9498 42.314 56.3068 42.23 56.7028 42.23ZM56.6578 46.478C56.9878 46.478 57.2878 46.403 57.5578 46.253C57.8278 46.097 58.0378 45.878 58.1878 45.596C58.3438 45.314 58.4218 44.993 58.4218 44.633C58.4218 44.273 58.3438 43.955 58.1878 43.679C58.0378 43.397 57.8278 43.178 57.5578 43.022C57.2878 42.866 56.9878 42.788 56.6578 42.788C56.3218 42.788 56.0188 42.866 55.7488 43.022C55.4848 43.178 55.2748 43.397 55.1188 43.679C54.9688 43.955 54.8938 44.273 54.8938 44.633C54.8938 44.993 54.9688 45.314 55.1188 45.596C55.2748 45.878 55.4848 46.097 55.7488 46.253C56.0188 46.403 56.3218 46.478 56.6578 46.478ZM64.5949 42.266L62.2279 47.567C62.0359 48.011 61.8139 48.326 61.5619 48.512C61.3099 48.698 61.0069 48.791 60.6529 48.791C60.4249 48.791 60.2119 48.755 60.0139 48.683C59.8159 48.611 59.6449 48.503 59.5009 48.359L59.7979 47.882C60.0379 48.122 60.3259 48.242 60.6619 48.242C60.8779 48.242 61.0609 48.182 61.2109 48.062C61.3669 47.942 61.5109 47.738 61.6429 47.45L61.8499 46.991L59.7349 42.266H60.4009L62.1829 46.289L63.9649 42.266H64.5949ZM69.8686 44.831H65.9086C65.9446 45.323 66.1336 45.722 66.4756 46.028C66.8176 46.328 67.2496 46.478 67.7716 46.478C68.0656 46.478 68.3356 46.427 68.5816 46.325C68.8276 46.217 69.0406 46.061 69.2206 45.857L69.5806 46.271C69.3706 46.523 69.1066 46.715 68.7886 46.847C68.4766 46.979 68.1316 47.045 67.7536 47.045C67.2676 47.045 66.8356 46.943 66.4576 46.739C66.0856 46.529 65.7946 46.241 65.5846 45.875C65.3746 45.509 65.2696 45.095 65.2696 44.633C65.2696 44.171 65.3686 43.757 65.5666 43.391C65.7706 43.025 66.0466 42.74 66.3946 42.536C66.7486 42.332 67.1446 42.23 67.5826 42.23C68.0206 42.23 68.4136 42.332 68.7616 42.536C69.1096 42.74 69.3826 43.025 69.5806 43.391C69.7786 43.751 69.8776 44.165 69.8776 44.633L69.8686 44.831ZM67.5826 42.779C67.1266 42.779 66.7426 42.926 66.4306 43.22C66.1246 43.508 65.9506 43.886 65.9086 44.354H69.2656C69.2236 43.886 69.0466 43.508 68.7346 43.22C68.4286 42.926 68.0446 42.779 67.5826 42.779ZM76.8541 42.266V47H76.2691V43.256L74.3521 46.424H74.0641L72.1471 43.247V47H71.5621V42.266H72.2101L74.2171 45.677L76.2601 42.266H76.8541ZM78.9875 47.045C78.8555 47.045 78.7415 46.997 78.6455 46.901C78.5555 46.805 78.5105 46.688 78.5105 46.55C78.5105 46.412 78.5555 46.298 78.6455 46.208C78.7415 46.112 78.8555 46.064 78.9875 46.064C79.1195 46.064 79.2335 46.112 79.3295 46.208C79.4255 46.298 79.4735 46.412 79.4735 46.55C79.4735 46.688 79.4255 46.805 79.3295 46.901C79.2335 46.997 79.1195 47.045 78.9875 47.045ZM86.6522 47.054C86.0282 47.054 85.4642 46.916 84.9602 46.64C84.4622 46.364 84.0692 45.983 83.7812 45.497C83.4992 45.005 83.3582 44.456 83.3582 43.85C83.3582 43.244 83.4992 42.698 83.7812 42.212C84.0692 41.72 84.4652 41.336 84.9692 41.06C85.4732 40.784 86.0372 40.646 86.6612 40.646C87.1292 40.646 87.5612 40.724 87.9572 40.88C88.3532 41.036 88.6892 41.264 88.9652 41.564L88.5422 41.987C88.0502 41.489 87.4292 41.24 86.6792 41.24C86.1812 41.24 85.7282 41.354 85.3202 41.582C84.9122 41.81 84.5912 42.122 84.3572 42.518C84.1292 42.914 84.0152 43.358 84.0152 43.85C84.0152 44.342 84.1292 44.786 84.3572 45.182C84.5912 45.578 84.9122 45.89 85.3202 46.118C85.7282 46.346 86.1812 46.46 86.6792 46.46C87.4352 46.46 88.0562 46.208 88.5422 45.704L88.9652 46.127C88.6892 46.427 88.3502 46.658 87.9482 46.82C87.5522 46.976 87.1202 47.054 86.6522 47.054ZM92.1996 47.045C91.7436 47.045 91.3326 46.943 90.9666 46.739C90.6006 46.529 90.3126 46.241 90.1026 45.875C89.8926 45.509 89.7876 45.095 89.7876 44.633C89.7876 44.171 89.8926 43.757 90.1026 43.391C90.3126 43.025 90.6006 42.74 90.9666 42.536C91.3326 42.332 91.7436 42.23 92.1996 42.23C92.6556 42.23 93.0666 42.332 93.4326 42.536C93.7986 42.74 94.0836 43.025 94.2876 43.391C94.4976 43.757 94.6026 44.171 94.6026 44.633C94.6026 45.095 94.4976 45.509 94.2876 45.875C94.0836 46.241 93.7986 46.529 93.4326 46.739C93.0666 46.943 92.6556 47.045 92.1996 47.045ZM92.1996 46.478C92.5356 46.478 92.8356 46.403 93.0996 46.253C93.3696 46.097 93.5796 45.878 93.7296 45.596C93.8796 45.314 93.9546 44.993 93.9546 44.633C93.9546 44.273 93.8796 43.952 93.7296 43.67C93.5796 43.388 93.3696 43.172 93.0996 43.022C92.8356 42.866 92.5356 42.788 92.1996 42.788C91.8636 42.788 91.5606 42.866 91.2906 43.022C91.0266 43.172 90.8166 43.388 90.6606 43.67C90.5106 43.952 90.4356 44.273 90.4356 44.633C90.4356 44.993 90.5106 45.314 90.6606 45.596C90.8166 45.878 91.0266 46.097 91.2906 46.253C91.5606 46.403 91.8636 46.478 92.1996 46.478ZM100.486 42.266V47H99.8473V42.833H96.8773V47H96.2383V42.266H100.486ZM105.012 42.23C105.456 42.23 105.858 42.332 106.218 42.536C106.578 42.734 106.86 43.016 107.064 43.382C107.268 43.748 107.37 44.165 107.37 44.633C107.37 45.107 107.268 45.527 107.064 45.893C106.86 46.259 106.578 46.544 106.218 46.748C105.864 46.946 105.462 47.045 105.012 47.045C104.628 47.045 104.28 46.967 103.968 46.811C103.662 46.649 103.41 46.415 103.212 46.109V48.746H102.573V42.266H103.185V43.202C103.377 42.89 103.629 42.65 103.941 42.482C104.259 42.314 104.616 42.23 105.012 42.23ZM104.967 46.478C105.297 46.478 105.597 46.403 105.867 46.253C106.137 46.097 106.347 45.878 106.497 45.596C106.653 45.314 106.731 44.993 106.731 44.633C106.731 44.273 106.653 43.955 106.497 43.679C106.347 43.397 106.137 43.178 105.867 43.022C105.597 42.866 105.297 42.788 104.967 42.788C104.631 42.788 104.328 42.866 104.058 43.022C103.794 43.178 103.584 43.397 103.428 43.679C103.278 43.955 103.203 44.273 103.203 44.633C103.203 44.993 103.278 45.314 103.428 45.596C103.584 45.878 103.794 46.097 104.058 46.253C104.328 46.403 104.631 46.478 104.967 46.478ZM110.966 47.045C110.51 47.045 110.099 46.943 109.733 46.739C109.367 46.529 109.079 46.241 108.869 45.875C108.659 45.509 108.554 45.095 108.554 44.633C108.554 44.171 108.659 43.757 108.869 43.391C109.079 43.025 109.367 42.74 109.733 42.536C110.099 42.332 110.51 42.23 110.966 42.23C111.422 42.23 111.833 42.332 112.199 42.536C112.565 42.74 112.85 43.025 113.054 43.391C113.264 43.757 113.369 44.171 113.369 44.633C113.369 45.095 113.264 45.509 113.054 45.875C112.85 46.241 112.565 46.529 112.199 46.739C111.833 46.943 111.422 47.045 110.966 47.045ZM110.966 46.478C111.302 46.478 111.602 46.403 111.866 46.253C112.136 46.097 112.346 45.878 112.496 45.596C112.646 45.314 112.721 44.993 112.721 44.633C112.721 44.273 112.646 43.952 112.496 43.67C112.346 43.388 112.136 43.172 111.866 43.022C111.602 42.866 111.302 42.788 110.966 42.788C110.63 42.788 110.327 42.866 110.057 43.022C109.793 43.172 109.583 43.388 109.427 43.67C109.277 43.952 109.202 44.273 109.202 44.633C109.202 44.993 109.277 45.314 109.427 45.596C109.583 45.878 109.793 46.097 110.057 46.253C110.327 46.403 110.63 46.478 110.966 46.478ZM118.019 44.552C118.661 44.702 118.982 45.089 118.982 45.713C118.982 46.127 118.829 46.445 118.523 46.667C118.217 46.889 117.761 47 117.155 47H115.004V42.266H117.092C117.632 42.266 118.055 42.371 118.361 42.581C118.667 42.791 118.82 43.091 118.82 43.481C118.82 43.739 118.748 43.961 118.604 44.147C118.466 44.327 118.271 44.462 118.019 44.552ZM115.625 44.372H117.047C117.413 44.372 117.692 44.303 117.884 44.165C118.082 44.027 118.181 43.826 118.181 43.562C118.181 43.298 118.082 43.1 117.884 42.968C117.692 42.836 117.413 42.77 117.047 42.77H115.625V44.372ZM117.128 46.496C117.536 46.496 117.842 46.43 118.046 46.298C118.25 46.166 118.352 45.959 118.352 45.677C118.352 45.395 118.259 45.188 118.073 45.056C117.887 44.918 117.593 44.849 117.191 44.849H115.625V46.496H117.128ZM122.703 47.045C122.247 47.045 121.836 46.943 121.47 46.739C121.104 46.529 120.816 46.241 120.606 45.875C120.396 45.509 120.291 45.095 120.291 44.633C120.291 44.171 120.396 43.757 120.606 43.391C120.816 43.025 121.104 42.74 121.47 42.536C121.836 42.332 122.247 42.23 122.703 42.23C123.159 42.23 123.57 42.332 123.936 42.536C124.302 42.74 124.587 43.025 124.791 43.391C125.001 43.757 125.106 44.171 125.106 44.633C125.106 45.095 125.001 45.509 124.791 45.875C124.587 46.241 124.302 46.529 123.936 46.739C123.57 46.943 123.159 47.045 122.703 47.045ZM122.703 46.478C123.039 46.478 123.339 46.403 123.603 46.253C123.873 46.097 124.083 45.878 124.233 45.596C124.383 45.314 124.458 44.993 124.458 44.633C124.458 44.273 124.383 43.952 124.233 43.67C124.083 43.388 123.873 43.172 123.603 43.022C123.339 42.866 123.039 42.788 122.703 42.788C122.367 42.788 122.064 42.866 121.794 43.022C121.53 43.172 121.32 43.388 121.164 43.67C121.014 43.952 120.939 44.273 120.939 44.633C120.939 44.993 121.014 45.314 121.164 45.596C121.32 45.878 121.53 46.097 121.794 46.253C122.064 46.403 122.367 46.478 122.703 46.478ZM130.724 44.894H129.698V47H129.059V44.894H128.033L126.584 47H125.819L127.52 44.561L125.954 42.266H126.647L128.033 44.345H129.059V42.266H129.698V44.345H130.724L132.119 42.266H132.812L131.246 44.57L132.947 47H132.182L130.724 44.894ZM138.897 46.442V48.143H138.294V47H134.055V48.143H133.452V46.442H133.722C134.04 46.424 134.256 46.19 134.37 45.74C134.484 45.29 134.562 44.66 134.604 43.85L134.667 42.266H138.159V46.442H138.897ZM135.189 43.886C135.159 44.558 135.102 45.113 135.018 45.551C134.934 45.983 134.784 46.28 134.568 46.442H137.52V42.833H135.243L135.189 43.886ZM142.041 42.23C142.659 42.23 143.133 42.386 143.463 42.698C143.793 43.004 143.958 43.46 143.958 44.066V47H143.346V46.262C143.202 46.508 142.989 46.7 142.707 46.838C142.431 46.976 142.101 47.045 141.717 47.045C141.189 47.045 140.769 46.919 140.457 46.667C140.145 46.415 139.989 46.082 139.989 45.668C139.989 45.266 140.133 44.942 140.421 44.696C140.715 44.45 141.18 44.327 141.816 44.327H143.319V44.039C143.319 43.631 143.205 43.322 142.977 43.112C142.749 42.896 142.416 42.788 141.978 42.788C141.678 42.788 141.39 42.839 141.114 42.941C140.838 43.037 140.601 43.172 140.403 43.346L140.115 42.869C140.355 42.665 140.643 42.509 140.979 42.401C141.315 42.287 141.669 42.23 142.041 42.23ZM141.816 46.541C142.176 46.541 142.485 46.46 142.743 46.298C143.001 46.13 143.193 45.89 143.319 45.578V44.804H141.834C141.024 44.804 140.619 45.086 140.619 45.65C140.619 45.926 140.724 46.145 140.934 46.307C141.144 46.463 141.438 46.541 141.816 46.541ZM150.07 44.831H146.11C146.146 45.323 146.335 45.722 146.677 46.028C147.019 46.328 147.451 46.478 147.973 46.478C148.267 46.478 148.537 46.427 148.783 46.325C149.029 46.217 149.242 46.061 149.422 45.857L149.782 46.271C149.572 46.523 149.308 46.715 148.99 46.847C148.678 46.979 148.333 47.045 147.955 47.045C147.469 47.045 147.037 46.943 146.659 46.739C146.287 46.529 145.996 46.241 145.786 45.875C145.576 45.509 145.471 45.095 145.471 44.633C145.471 44.171 145.57 43.757 145.768 43.391C145.972 43.025 146.248 42.74 146.596 42.536C146.95 42.332 147.346 42.23 147.784 42.23C148.222 42.23 148.615 42.332 148.963 42.536C149.311 42.74 149.584 43.025 149.782 43.391C149.98 43.751 150.079 44.165 150.079 44.633L150.07 44.831ZM147.784 42.779C147.328 42.779 146.944 42.926 146.632 43.22C146.326 43.508 146.152 43.886 146.11 44.354H149.467C149.425 43.886 149.248 43.508 148.936 43.22C148.63 42.926 148.246 42.779 147.784 42.779ZM157.055 42.266V47H156.47V43.256L154.553 46.424H154.265L152.348 43.247V47H151.763V42.266H152.411L154.418 45.677L156.461 42.266H157.055ZM159.188 47.045C159.056 47.045 158.942 46.997 158.846 46.901C158.756 46.805 158.711 46.688 158.711 46.55C158.711 46.412 158.756 46.298 158.846 46.208C158.942 46.112 159.056 46.064 159.188 46.064C159.32 46.064 159.434 46.112 159.53 46.208C159.626 46.298 159.674 46.412 159.674 46.55C159.674 46.688 159.626 46.805 159.53 46.901C159.434 46.997 159.32 47.045 159.188 47.045ZM166.457 40.7C167.261 40.7 167.891 40.892 168.347 41.276C168.803 41.66 169.031 42.188 169.031 42.86C169.031 43.532 168.803 44.06 168.347 44.444C167.891 44.822 167.261 45.011 166.457 45.011H164.765V47H164.099V40.7H166.457ZM166.439 44.426C167.063 44.426 167.54 44.291 167.87 44.021C168.2 43.745 168.365 43.358 168.365 42.86C168.365 42.35 168.2 41.96 167.87 41.69C167.54 41.414 167.063 41.276 166.439 41.276H164.765V44.426H166.439ZM174.631 44.831H170.671C170.707 45.323 170.896 45.722 171.238 46.028C171.58 46.328 172.012 46.478 172.534 46.478C172.828 46.478 173.098 46.427 173.344 46.325C173.59 46.217 173.803 46.061 173.983 45.857L174.343 46.271C174.133 46.523 173.869 46.715 173.551 46.847C173.239 46.979 172.894 47.045 172.516 47.045C172.03 47.045 171.598 46.943 171.22 46.739C170.848 46.529 170.557 46.241 170.347 45.875C170.137 45.509 170.032 45.095 170.032 44.633C170.032 44.171 170.131 43.757 170.329 43.391C170.533 43.025 170.809 42.74 171.157 42.536C171.511 42.332 171.907 42.23 172.345 42.23C172.783 42.23 173.176 42.332 173.524 42.536C173.872 42.74 174.145 43.025 174.343 43.391C174.541 43.751 174.64 44.165 174.64 44.633L174.631 44.831ZM172.345 42.779C171.889 42.779 171.505 42.926 171.193 43.22C170.887 43.508 170.713 43.886 170.671 44.354H174.028C173.986 43.886 173.809 43.508 173.497 43.22C173.191 42.926 172.807 42.779 172.345 42.779ZM179.673 42.833H176.964V47H176.325V42.266H179.673V42.833ZM180.866 42.266H181.505V46.028L184.664 42.266H185.231V47H184.592V43.238L181.442 47H180.866V42.266ZM189.313 47.045C188.845 47.045 188.425 46.943 188.053 46.739C187.687 46.535 187.399 46.25 187.189 45.884C186.979 45.512 186.874 45.095 186.874 44.633C186.874 44.171 186.979 43.757 187.189 43.391C187.399 43.025 187.687 42.74 188.053 42.536C188.425 42.332 188.845 42.23 189.313 42.23C189.721 42.23 190.084 42.311 190.402 42.473C190.726 42.629 190.981 42.86 191.167 43.166L190.69 43.49C190.534 43.256 190.336 43.082 190.096 42.968C189.856 42.848 189.595 42.788 189.313 42.788C188.971 42.788 188.662 42.866 188.386 43.022C188.116 43.172 187.903 43.388 187.747 43.67C187.597 43.952 187.522 44.273 187.522 44.633C187.522 44.999 187.597 45.323 187.747 45.605C187.903 45.881 188.116 46.097 188.386 46.253C188.662 46.403 188.971 46.478 189.313 46.478C189.595 46.478 189.856 46.421 190.096 46.307C190.336 46.193 190.534 46.019 190.69 45.785L191.167 46.109C190.981 46.415 190.726 46.649 190.402 46.811C190.078 46.967 189.715 47.045 189.313 47.045ZM195.916 42.833H194.125V47H193.486V42.833H191.695V42.266H195.916V42.833ZM199.549 42.23C199.993 42.23 200.395 42.332 200.755 42.536C201.115 42.734 201.397 43.016 201.601 43.382C201.805 43.748 201.907 44.165 201.907 44.633C201.907 45.107 201.805 45.527 201.601 45.893C201.397 46.259 201.115 46.544 200.755 46.748C200.401 46.946 199.999 47.045 199.549 47.045C199.165 47.045 198.817 46.967 198.505 46.811C198.199 46.649 197.947 46.415 197.749 46.109V48.746H197.11V42.266H197.722V43.202C197.914 42.89 198.166 42.65 198.478 42.482C198.796 42.314 199.153 42.23 199.549 42.23ZM199.504 46.478C199.834 46.478 200.134 46.403 200.404 46.253C200.674 46.097 200.884 45.878 201.034 45.596C201.19 45.314 201.268 44.993 201.268 44.633C201.268 44.273 201.19 43.955 201.034 43.679C200.884 43.397 200.674 43.178 200.404 43.022C200.134 42.866 199.834 42.788 199.504 42.788C199.168 42.788 198.865 42.866 198.595 43.022C198.331 43.178 198.121 43.397 197.965 43.679C197.815 43.955 197.74 44.273 197.74 44.633C197.74 44.993 197.815 45.314 197.965 45.596C198.121 45.878 198.331 46.097 198.595 46.253C198.865 46.403 199.168 46.478 199.504 46.478ZM203.55 42.266H204.189V46.028L207.348 42.266H207.915V47H207.276V43.238L204.126 47H203.55V42.266ZM212.455 42.23C212.899 42.23 213.301 42.332 213.661 42.536C214.021 42.734 214.303 43.016 214.507 43.382C214.711 43.748 214.813 44.165 214.813 44.633C214.813 45.107 214.711 45.527 214.507 45.893C214.303 46.259 214.021 46.544 213.661 46.748C213.307 46.946 212.905 47.045 212.455 47.045C212.071 47.045 211.723 46.967 211.411 46.811C211.105 46.649 210.853 46.415 210.655 46.109V48.746H210.016V42.266H210.628V43.202C210.82 42.89 211.072 42.65 211.384 42.482C211.702 42.314 212.059 42.23 212.455 42.23ZM212.41 46.478C212.74 46.478 213.04 46.403 213.31 46.253C213.58 46.097 213.79 45.878 213.94 45.596C214.096 45.314 214.174 44.993 214.174 44.633C214.174 44.273 214.096 43.955 213.94 43.679C213.79 43.397 213.58 43.178 213.31 43.022C213.04 42.866 212.74 42.788 212.41 42.788C212.074 42.788 211.771 42.866 211.501 43.022C211.237 43.178 211.027 43.397 210.871 43.679C210.721 43.955 210.646 44.273 210.646 44.633C210.646 44.993 210.721 45.314 210.871 45.596C211.027 45.878 211.237 46.097 211.501 46.253C211.771 46.403 212.074 46.478 212.41 46.478ZM220.347 42.266L217.98 47.567C217.788 48.011 217.566 48.326 217.314 48.512C217.062 48.698 216.759 48.791 216.405 48.791C216.177 48.791 215.964 48.755 215.766 48.683C215.568 48.611 215.397 48.503 215.253 48.359L215.55 47.882C215.79 48.122 216.078 48.242 216.414 48.242C216.63 48.242 216.813 48.182 216.963 48.062C217.119 47.942 217.263 47.738 217.395 47.45L217.602 46.991L215.487 42.266H216.153L217.935 46.289L219.717 42.266H220.347ZM225.621 44.831H221.661C221.697 45.323 221.886 45.722 222.228 46.028C222.57 46.328 223.002 46.478 223.524 46.478C223.818 46.478 224.088 46.427 224.334 46.325C224.58 46.217 224.793 46.061 224.973 45.857L225.333 46.271C225.123 46.523 224.859 46.715 224.541 46.847C224.229 46.979 223.884 47.045 223.506 47.045C223.02 47.045 222.588 46.943 222.21 46.739C221.838 46.529 221.547 46.241 221.337 45.875C221.127 45.509 221.022 45.095 221.022 44.633C221.022 44.171 221.121 43.757 221.319 43.391C221.523 43.025 221.799 42.74 222.147 42.536C222.501 42.332 222.897 42.23 223.335 42.23C223.773 42.23 224.166 42.332 224.514 42.536C224.862 42.74 225.135 43.025 225.333 43.391C225.531 43.751 225.63 44.165 225.63 44.633L225.621 44.831ZM223.335 42.779C222.879 42.779 222.495 42.926 222.183 43.22C221.877 43.508 221.703 43.886 221.661 44.354H225.018C224.976 43.886 224.799 43.508 224.487 43.22C224.181 42.926 223.797 42.779 223.335 42.779ZM232.607 42.266V47H232.022V43.256L230.105 46.424H229.817L227.9 43.247V47H227.315V42.266H227.963L229.97 45.677L232.013 42.266H232.607ZM234.74 47.045C234.608 47.045 234.494 46.997 234.398 46.901C234.308 46.805 234.263 46.688 234.263 46.55C234.263 46.412 234.308 46.298 234.398 46.208C234.494 46.112 234.608 46.064 234.74 46.064C234.872 46.064 234.986 46.112 235.082 46.208C235.178 46.298 235.226 46.412 235.226 46.55C235.226 46.688 235.178 46.805 235.082 46.901C234.986 46.997 234.872 47.045 234.74 47.045Z" fill="white"/>
<path d="M109 33.5073V2H2V110H109V81.9935" stroke="#B8EE46" stroke-width="3" stroke-linecap="square"/>
</svg>
